<?xml version="1.0" encoding="utf-8"?><!DOCTYPE svg PUBLIC "-//W3C//DTD SVG 1.1//EN" "http://www.w3.org/Graphics/SVG/1.1/DTD/svg11.dtd"><svg version="1.1" id="Ebene_1" xmlns="http://www.w3.org/2000/svg" xmlns:xlink="http://www.w3.org/1999/xlink" x="0px" y="0px" width="90.71px" height="90.71px" viewBox="0 0 90.71 90.71" enable-background="new 0 0 90.71 90.71" xml:space="preserve"><g><path fill="#25A847" d="M46.818,19.101c8.99,0,17.756,3.553,24.207,9.814c6.431,6.24,10.252,14.865,10.537,23.822 c0.286,9.014-2.993,17.913-9.079,24.571c-6.026,6.593-14.507,10.677-23.424,11.244c-9.023,0.574-18.048-2.432-24.903-8.331 c-6.752-5.81-11.093-14.14-11.941-23.012c-0.862-9.02,1.868-18.161,7.572-25.206c5.592-6.906,13.767-11.496,22.587-12.622 C43.847,19.194,45.333,19.101,46.818,19.101z" /><g><path fill="#9FA5A7" stroke="#9FA5A7" d="M54.085,3.233c0.613,2.312,0.787,4.467,0.651,6.513c0.142-2.035-0.03-4.187-0.647-6.52 l0,0l-0.598,0.809c0.002,0,0.002,0,0.002-0.001L54.085,3.233z" /><path fill="#9FA5A7" stroke="#9FA5A7" d="M53.77,7.75c-0.124-0.78-0.28-2.973-0.283-3.236c-2.299,1.349-4.239,3.204-5.845,5.432 l5.457,5.724C53.964,13.242,54.369,10.667,53.77,7.75C53.646,6.97,54.369,10.667,53.77,7.75z" /><path fill="#9FA5A7" stroke="#9FA5A7" d="M48.736,8.104c-0.439,0.535-0.847,1.105-1.24,1.691h0.002 C47.89,9.209,48.296,8.639,48.736,8.104z" /><path fill="#9FA5A7" stroke="#9FA5A7" d="M47.498,9.794L47.498,9.794c-0.61,0.907-1.168,1.869-1.677,2.876l0,0 C46.33,11.664,46.888,10.702,47.498,9.794z" /><path fill="#9FA5A7" stroke="#9FA5A7" d="M53.099,15.67l-5.457-5.724c-0.635,0.879-1.217,1.816-1.744,2.806l5.812,6.098 C52.24,17.81,52.712,16.753,53.099,15.67z" /><path fill="#A0A6A8" stroke="#A0A6A8" d="M51.71,18.85l-5.812-6.098c-0.531,0.994-1.005,2.043-1.432,3.133l5.643,5.919 C50.662,20.822,51.207,19.841,51.71,18.85z" /><path fill="#A0A6A8" stroke="#A0A6A8" d="M45.821,12.671L45.821,12.671c-0.513,1.014-0.979,2.071-1.405,3.162l0,0 C44.842,14.742,45.308,13.686,45.821,12.671z" /><path fill="#A1A6A9" stroke="#A1A6A9" d="M44.416,15.833c-0.071,0.181-0.14,0.361-0.208,0.543 C44.276,16.194,44.345,16.014,44.416,15.833L44.416,15.833z" /><path fill="#A1A6A9" stroke="#A1A6A9" d="M44,16.927c0.009-0.026,0.018-0.054,0.027-0.08C44.017,16.873,44.009,16.9,44,16.927z" /><path fill="#A1A6A9" stroke="#A1A6A9" d="M48.496,24.748c0.518-0.993,1.064-1.97,1.612-2.944l-5.643-5.919 c-0.432,1.104-0.813,2.253-1.14,3.44L48.496,24.748z" /><path fill="#A3A7AA" stroke="#A3A7AA" d="M42.486,23.08l4.567,4.791c0.416-1.068,0.909-2.104,1.44-3.123l-5.168-5.422 C42.991,20.541,42.711,21.794,42.486,23.08z" /><path fill="#A4A8AB" stroke="#A4A8AB" d="M42.486,23.08c-0.077,0.435-0.151,0.872-0.215,1.313 c-0.191,0.874-0.356,1.726-0.51,2.563L42.756,28c0.627,0.046,1.319,0.091,1.963,0.254c0.739-0.134,1.438,0.321,1.778,1.212 c0.16-0.542,0.353-1.071,0.557-1.596L42.486,23.08z" /><path fill="#A4A8AB" stroke="#A4A8AB" d="M53.489,38.307c-0.002,0.081-0.016,0.158-0.026,0.236 C53.474,38.464,53.487,38.387,53.489,38.307z" /><path fill="#A4A8AB" stroke="#A4A8AB" d="M51.414,33.706c-0.498,0.837-1.736,1.553-0.037,1.517 c1.016,0.094,2.115,1.688,2.109,3.017c0.006-1.333-1.089-2.93-2.104-3.025c-1.699,0.036-0.463-0.666,0.037-1.503 c-0.075-0.113-0.157-0.213-0.244-0.303C51.261,33.496,51.339,33.595,51.414,33.706C50.916,34.543,51.339,33.595,51.414,33.706z" /><path fill="#A4A8AB" stroke="#A4A8AB" d="M46.888,30.369c0.021,0.095,0.054,0.171,0.068,0.273 c0.364,1.548,1.395,1.739,2.429,1.962c-1.035-0.226-2.063-0.422-2.427-1.968c-0.016-0.102-0.043-0.175-0.063-0.27 c0.039-0.111,0.081-0.221,0.121-0.331C46.974,30.146,46.929,30.257,46.888,30.369C46.91,30.464,46.929,30.257,46.888,30.369z" /><path fill="#A4A8AB" stroke="#A4A8AB" d="M53.304,39.064l0.002,0.001c0.063-0.128,0.111-0.262,0.143-0.401 C53.417,38.803,53.369,38.937,53.304,39.064z" /><path fill="#A5A9AC" stroke="#A5A9AC" d="M51.771,42.089c-0.227-0.621-0.45-1.259-0.673-1.931c0,0-0.593,0.038-1.259-0.095 L51.771,42.089z" /><path fill="#A5A9AC" stroke="#A5A9AC" d="M41.761,26.957c-0.07,0.379-0.143,0.763-0.205,1.132 c0.167-0.089,0.502-0.099,0.747-0.125c0.145,0.014,0.299,0.024,0.453,0.036L41.761,26.957z" /><path fill="#A5A9AC" stroke="#A5A9AC" d="M53.304,39.064c-0.143,0.288-0.369,0.536-0.713,0.708 c-0.326,0.108-0.719,0.112-1.084,0.197c0.021,0.058,0.039,0.108,0.059,0.166c-0.018-0.054-0.036-0.104-0.054-0.159 c0.364-0.084,0.75-0.089,1.075-0.197c0.347-0.173,0.574-0.423,0.719-0.714L53.304,39.064z" /><path fill="#A6AAAD" stroke="#A6AAAD" d="M19.974,13.376l3.931,4.123C22.694,15.934,21.399,14.535,19.974,13.376z" /><path fill="#A6AAAD" stroke="#A6AAAD" d="M38.994,28.698c-0.142,0.057-0.285,0.112-0.424,0.18c0,0,0,0,0,0.001 C38.709,28.811,38.852,28.755,38.994,28.698z" /><path fill="#A6AAAD" stroke="#A6AAAD" d="M38.221,29.359c-0.283,0.377-0.618,0.784-0.982,1.204 C37.603,30.144,37.938,29.736,38.221,29.359z" /><path fill="#A6AAAD" stroke="#A6AAAD" d="M47.541,42.289c0.641,0.251,1.203,0.734,1.648,1.456c0.115,0.188,0.221,0.395,0.32,0.61 l6.73,7.059c-1.477-2.295-2.998-5.277-4.471-9.325l-1.932-2.026c-0.646-0.128-1.357-0.416-1.67-1.06 c-1.524-2.378-3.653-2.505-5.765-2.1L47.541,42.289z" /><path fill="#A7ABAE" stroke="#A7ABAE" d="M50.458,49.365c0.004,0.193-0.015,0.383-0.053,0.565l4.223,4.429 c0.734-0.51,1.604-0.986,2.651-1.422c-0.343-0.473-0.688-0.979-1.038-1.523l-6.73-7.059C50.08,45.576,50.41,47.246,50.458,49.365 C50.462,49.558,50.41,47.246,50.458,49.365z" /><path fill="#A7ABAE" stroke="#A7ABAE" d="M13.994,10.082c0.467,0.131,0.931,0.271,1.393,0.418 c-0.463-0.147-0.928-0.288-1.396-0.42c-0.687-0.194-1.429-0.408-2.17-0.62h0.001C12.564,9.673,13.307,9.888,13.994,10.082 C14.463,10.214,13.307,9.888,13.994,10.082z" /><path fill="#A7ABAE" stroke="#A7ABAE" d="M17.202,15.104c1.101,0.749,2.202,1.573,3.165,2.497 c0.882,0.847,1.527,2.148,2.217,3.148l9.329,9.785c-2.65-4.556-5.093-9.265-8.008-13.035l-3.931-4.123 c-0.124-0.101-0.242-0.212-0.367-0.309c-1.343-1.035-3.505-1.8-5.708-2.423c-0.434-0.123-0.871-0.249-1.308-0.376L17.202,15.104z" /><path fill="#A7ABAE" stroke="#A7ABAE" d="M43.96,43.169c0.568-0.534,1.257-0.932,2.075-1.049c0.535-0.077,1.041-0.014,1.506,0.168 l-5.136-5.386c-0.159,0.031-0.317,0.063-0.476,0.099c-0.923-0.514-3.017-0.679-4.541-0.725L43.96,43.169z" /><path fill="#A8ACAF" stroke="#A8ACAF" d="M48.082,52.125l4.248,4.457c0.129-0.178,0.268-0.354,0.414-0.528l0.03-0.076 c0.209-0.22,0.406-0.415,0.595-0.592c0.367-0.354,0.784-0.696,1.26-1.025l-4.223-4.429c-0.117,0.564-0.421,1.068-0.838,1.445 C49.167,51.733,48.653,51.996,48.082,52.125z" /><path fill="#A8ACAF" stroke="#A8ACAF" d="M10.546,12.756c-0.366-0.735-0.641-1.377-0.677-1.766 c0.681,0.136,4.561,2.531,6.218,3.422c0.342,0.184,0.724,0.425,1.115,0.691l-4.611-4.836c-1.781-0.52-3.53-1.066-4.788-1.507 c0,0,0.173,0.634,0.416,1.556L10.546,12.756z" /><path fill="#A8ACAF" stroke="#A8ACAF" d="M11.82,9.46c-1.05-0.3-2.098-0.593-2.985-0.809C9.723,8.868,10.771,9.161,11.82,9.46 L11.82,9.46z" /><path fill="#A8ACAF" stroke="#A8ACAF" d="M22.583,20.749c0.954,1.381,2.002,2.909,2.634,3.858c1.32,1.981,2.679,4.107,3.802,5.991 c0.809,1.356,1.481,2.573,1.945,3.575l11.251,11.801c0.126-0.398,0.34-0.81,0.557-1.219c0.303-0.576,0.702-1.129,1.188-1.585 l-6.571-6.893c-0.667-0.02-1.227-0.017-1.529-0.011c0.282,0.405,0.534,0.829,0.827,1.218l-0.363-0.122 c-1.594-2.127-3.031-4.457-4.411-6.829L22.583,20.749z" /><path fill="#A9ADB0" stroke="#A9ADB0" d="M18.018,25.23c-0.027-0.03-0.058-0.064-0.085-0.094c-1.403-1.565-2.611-2.742-2.996-3.45 c-0.479-0.883-1.167-2.6-1.959-4.347c-0.531-1.171-1.688-3.086-2.433-4.583l-2.327-2.44c0.478,1.811,1.226,4.732,1.475,6.184 L18.018,25.23z" /><path fill="#A9ADB0" stroke="#A9ADB0" d="M51.396,59.494l0.729-1.857C51.816,58.25,51.585,58.873,51.396,59.494z" /><path fill="#A9ADB0" stroke="#A9ADB0" d="M8.459,12.798c0.263,1.135,0.521,2.266,0.695,3.135l0.004,0.005 C8.984,15.068,8.724,13.935,8.459,12.798C8.722,13.933,8.724,13.935,8.459,12.798z" /><path fill="#A9ADB0" stroke="#A9ADB0" d="M48.082,52.125c-0.222,0.051-0.449,0.086-0.686,0.092 c-1.697,0.048-5.26-1.59-5.295-5.625c-0.002-0.199,0.047-0.406,0.114-0.617l-11.25-11.801c0.181,0.39,0.337,0.754,0.447,1.071 l-0.144-0.129l-0.1,0.179l-0.139,0.248l-0.139,0.249l-0.139,0.248L30.61,36.29l-0.139,0.248l-0.139,0.248l-0.14,0.25l-0.139,0.249 l-0.14,0.25l-0.062,0.109l21.003,22.029c0.317-1.047,0.758-2.094,1.474-3.09L48.082,52.125z" /><path fill="#AAAEB1" stroke="#AAAEB1" d="M28.239,40.543c0,0-0.002,0.015-0.005,0.041l0.243,0.255 C28.398,40.74,28.324,40.647,28.239,40.543z" /><path fill="#990000" stroke="#990000" d="M9.338,16.952c-0.035-0.26-0.099-0.611-0.18-1.014l-0.004-0.005 c0.081,0.405,0.145,0.759,0.18,1.02c0.326,2.438,1.472,4.774,3.064,7.019l0.004,0.004C10.81,21.729,9.664,19.391,9.338,16.952 C9.303,16.692,9.664,19.391,9.338,16.952z" /><path fill="#AAAEB1" stroke="#AAAEB1" d="M50.404,61.403c0.135-0.569,0.276-1.149,0.452-1.729l-21.003-22.03l-0.077,0.137 l-0.011,0.019c0.021,0.027,0.043,0.059,0.046,0.065l-0.09,0.192c-0.213-0.517-0.965-1.083-1.332-1.494 c-0.993-1.11-1.987-2.219-2.985-3.324c-2.434-2.696-4.961-5.306-7.386-8.01L9.694,16.5c0.021,0.124,0.041,0.242,0.054,0.343 c0.641,4.794,4.852,9.517,9.368,13.836c4.37,4.18,8.807,8.052,10.683,11.546l19.957,20.933 C50.033,62.557,50.269,61.978,50.404,61.403C50.539,60.833,50.269,61.978,50.404,61.403z" /><path fill="#ABAFB2" stroke="#ABAFB2" d="M24.567,41.212c-0.021,0.032-0.038,0.063-0.059,0.095l0,0 C24.529,41.275,24.546,41.244,24.567,41.212z" /><path fill="#ABAFB2" stroke="#ABAFB2" d="M12.397,23.972c0.208,0.293,0.423,0.585,0.646,0.875 c-0.221-0.289-0.435-0.58-0.642-0.872L12.397,23.972z" /><path fill="#ABAFB2" stroke="#ABAFB2" d="M48.354,65.996c0.519-1.065,1.008-1.979,1.401-2.838L29.799,42.225 c0.062,0.117,0.13,0.233,0.187,0.349l-0.163,0.211c-0.337-0.685-0.782-1.249-1.346-1.946l-0.243-0.255 c-0.03,0.251-0.194,1.677-0.215,2.911l0.007,0.232l0.013,0.415l0.013,0.415l0.001,0.033c0.009,0.081,0.019,0.159,0.031,0.23 c0.016,0.09,0.035,0.191,0.056,0.297L48.251,66.21C48.287,66.14,48.32,66.064,48.354,65.996 C48.873,64.93,48.32,66.064,48.354,65.996z" /><path fill="#ABAFB2" stroke="#ABAFB2" d="M60.55,76.789c0.449-0.183,0.877-0.404,1.291-0.646l-2.191,0.997 C59.917,77.039,60.214,76.923,60.55,76.789C61,76.606,60.214,76.923,60.55,76.789z" /><path fill="#ACB0B3" stroke="#ACB0B3" d="M36.259,58.27l0.268-0.114c0.324,0.446,0.664,0.934,1.004,1.449l9.506,9.971 c0.199-0.8,0.428-1.505,0.674-2.128c-0.436-0.921-0.828-1.716-1.098-2.368l0.438,0.045c0.15,0.328,0.451,0.985,0.867,1.832 c0.109-0.258,0.223-0.506,0.336-0.744L28.141,45.117c0.134,0.677,0.349,1.595,0.278,1.75c-0.165,0.358-0.628,0.537-0.826,1.506 c-0.044,0.215-0.053,0.479-0.044,0.763L36.259,58.27z" /><path fill="#ACB0B3" stroke="#ACB0B3" d="M24.073,42.113c0.102-0.258,0.258-0.534,0.436-0.806l0,0 C24.331,41.579,24.174,41.854,24.073,42.113c-0.128,0.324-0.26,0.593-0.392,0.84C23.813,42.707,23.945,42.438,24.073,42.113 C24.175,41.855,23.945,42.438,24.073,42.113z" /><path fill="#ADB1B4" stroke="#ADB1B4" d="M22.036,47.448c-0.074,0.12-0.134,0.22-0.201,0.329l0.121,0.127 C21.979,47.751,22.006,47.598,22.036,47.448C21.962,47.568,22.006,47.598,22.036,47.448z" /><path fill="#ADB1B4" stroke="#ADB1B4" d="M47.037,69.576l-9.506-9.972c1.009,1.53,2.017,3.319,2.598,5.103 c0.56,1.713,1.407,3.317,2.385,4.762l3.93,4.121C46.553,71.984,46.764,70.673,47.037,69.576z" /><path fill="#ADB1B4" stroke="#ADB1B4" d="M38.405,65.157c0.063-0.88,0.146-1.694,0.254-2.417c-0.789-1.654-1.609-3.31-2.44-4.453 l0.04-0.018l-8.71-9.137c0.024,0.787,0.2,1.767,0.27,2.587c0.048,0.558,0.063,1.067-0.168,1.454 c-0.052,0.088-0.24,0.168-0.454,0.227L38.405,65.157z" /><path fill="#ADB1B4" stroke="#ADB1B4" d="M39.092,63.333c0.217,0.526,0.479,1.293,0.665,1.681 c0.005,0.012,0.011,0.022,0.017,0.032c-0.003-0.012-0.009-0.022-0.012-0.034C39.632,64.585,39.325,63.851,39.092,63.333 C39.309,63.86,39.325,63.851,39.092,63.333z" /><path fill="#ADB1B4" stroke="#ADB1B4" d="M38.677,65.442l0.035,0.036c0.071-0.84,0.159-1.645,0.268-2.395 c-0.001-0.004-0.003-0.008-0.005-0.012C38.873,63.771,38.773,64.569,38.677,65.442z" /><path fill="#AEB2B5" stroke="#AEB2B5" d="M42.515,69.468c1.189,1.755,2.571,3.25,3.91,4.387c0.007-0.091,0.014-0.176,0.02-0.266 L42.515,69.468z" /><path fill="#AEB2B5" stroke="#AEB2B5" d="M38.242,69.619c0.015-1.586,0.065-3.103,0.163-4.461L27.196,53.4 c-0.266,0.072-0.57,0.107-0.703,0.066c-0.006,0.018,0.006-0.006,0,0.021c-0.032,0.13-0.247,1.896-0.325,2.097 c-0.134,0.342-0.255,0.67-0.373,0.98L38.242,69.619z" /><path fill="#AEB2B5" stroke="#AEB2B5" d="M38.279,69.658l0.212,0.223c0.033-1.525,0.103-3.014,0.22-4.401l-0.035-0.036 C38.539,66.698,38.406,68.119,38.279,69.658z" /><path fill="#AEB2B5" stroke="#AEB2B5" d="M23.522,54.181c-0.209-0.688-0.415-1.34-0.474-1.504c-0.426-1.192-0.613-2-1.03-3.167 c-0.172-0.483-0.148-1.052-0.062-1.605l-0.121-0.127c-1.396,2.288-1.323,2.248-1.787,2.759L23.522,54.181z" /><path fill="#AEB2B5" stroke="#AEB2B5" d="M20.75,48.563c-0.382,0.636-0.644,1.031-1.077,1.578l0.003,0.004 C20.106,49.599,20.368,49.201,20.75,48.563C20.368,49.199,20.368,49.201,20.75,48.563z" /><path fill="#AFB3B6" stroke="#AFB3B6" d="M18.68,51.346c0.433-0.509,0.742-0.88,0.996-1.2l-0.003-0.004 c-0.252,0.318-0.561,0.688-0.991,1.193c-0.312,0.365-0.635,0.703-0.974,1.018C18.045,52.041,18.37,51.71,18.68,51.346 C19.113,50.837,18.37,51.71,18.68,51.346z" /><path fill="#AFB3B6" stroke="#AFB3B6" d="M38.238,70.173c-0.006,1.353,0.011,2.744,0.044,4.125l0.205,0.215 c-0.027-1.537-0.029-3.102,0.004-4.633l-0.212-0.223C38.266,69.828,38.252,70.001,38.238,70.173 C38.232,71.526,38.252,70.001,38.238,70.173z" /><path fill="#AFB3B6" stroke="#AFB3B6" d="M17.639,52.417c-0.039,0.035-0.081,0.066-0.12,0.103l0.006,0.006 C17.563,52.492,17.6,52.453,17.639,52.417z" /><path fill="#AFB3B6" stroke="#AFB3B6" d="M25.796,56.564c-0.053,0.141-0.106,0.285-0.159,0.412 c-0.064,0.156-0.76,1.279-0.958,1.03c-0.39-0.489-0.551-1.351-0.633-1.951c-0.027-0.203-0.278-1.066-0.524-1.875l-3.475-3.646 c-0.204,0.223-0.51,0.553-1.097,1.241c-0.296,0.349-0.709,0.679-1.192,0.994l20.203,21.19c0.088-1.319,0.181-2.586,0.277-3.789 c0.001-0.186,0.001-0.371,0.003-0.555L25.796,56.564z" /><path fill="#B1B4B7" stroke="#B1B4B7" d="M38.456,79.117l0.186,0.194c-0.069-1.511-0.125-3.138-0.154-4.799l-0.205-0.214 C38.322,75.955,38.385,77.591,38.456,79.117z" /><path fill="#B1B4B7" stroke="#B1B4B7" d="M17.519,52.52c-0.105,0.094-0.212,0.187-0.322,0.274c0.109-0.09,0.222-0.176,0.328-0.27 L17.519,52.52z" /><path fill="#B1B4B7" stroke="#B1B4B7" d="M17.772,52.916c-0.76,0.497-1.706,0.95-2.704,1.354c-0.098,0.045-0.2,0.09-0.3,0.133 l22.938,24.06c0.085-1.489,0.175-2.948,0.269-4.354L17.772,52.916z" /><path fill="#B1B4B7" stroke="#B1B4B7" d="M15.952,53.656c0.146-0.086,0.287-0.176,0.426-0.267 C16.239,53.48,16.098,53.57,15.952,53.656z" /><path fill="#B1B4B7" stroke="#B1B4B7" d="M15.238,54.041c0.144-0.07,0.279-0.146,0.416-0.221 C15.517,53.895,15.381,53.97,15.238,54.041z" /><path fill="#B1B4B7" stroke="#B1B4B7" d="M16.605,53.238c0.146-0.102,0.289-0.206,0.428-0.312 C16.894,53.033,16.751,53.137,16.605,53.238z" /><path fill="#B2B5B8" stroke="#B2B5B8" d="M37.692,78.448L14.755,54.389c-0.001,0-0.001,0-0.002,0.002 c-0.099,0.043-0.192,0.089-0.295,0.13c-0.258,0.104-0.527,0.204-0.807,0.299c-0.02,0.007-0.042,0.013-0.062,0.019 c-0.336,0.112-0.68,0.214-1.022,0.307c0.022,0.562,0.056,1.127,0.106,1.693L37.46,82.836 C37.533,81.361,37.61,79.892,37.692,78.448z" /><path fill="#B2B5B8" stroke="#B2B5B8" d="M37.147,85.228l1.944,1.5c-0.095-1.354-0.365-5.537-0.451-7.417l-0.186-0.194 C38.543,80.982,37.06,83.867,37.147,85.228z" /><path fill="#B3B6B9" stroke="#B3B6B9" d="M37.46,82.705L12.672,56.707c0.153,2.167,0.214,3.336,0.989,5.672l22.91,23.155 C36.634,84.071,37.387,84.182,37.46,82.705z" /><path fill="#B4B7BA" stroke="#B4B7BA" d="M13.479,62.143c0.563,3.103,1.838,5.509,3.126,7.993 c4.016,6.668,9.094,13.469,22.015,17.05L13.479,62.143z" /><path fill="#666666" stroke="#666666" d="M24.472,55.927c0.107,0.798,0.224,1.297,0.312,1.482 c0.043,0.094,0.317-0.324,0.477-0.713c0.021-0.05,0.05-0.146,0.086-0.273l-0.977-0.937C24.42,55.679,24.461,55.843,24.472,55.927 C24.579,56.725,24.461,55.843,24.472,55.927z" /><path fill="#666666" stroke="#666666" d="M24.219,54.942c0.059,0.204,0.109,0.386,0.151,0.545l0.977,0.937 c0.025-0.092,0.054-0.201,0.085-0.32L24.219,54.942z" /><path fill="#676767" stroke="#676767" d="M24.219,54.942l1.213,1.16c0.026-0.101,0.054-0.208,0.082-0.323l-1.46-1.396 C24.113,54.578,24.167,54.763,24.219,54.942z" /><path fill="#686868" stroke="#686868" d="M24.055,54.382l1.46,1.396c0.026-0.104,0.053-0.213,0.081-0.326l-1.713-1.639 C23.94,54.003,23.997,54.191,24.055,54.382z" /><path fill="#696968" stroke="#696968" d="M23.882,53.814l1.713,1.639c0.026-0.105,0.052-0.215,0.079-0.326l-1.972-1.885 C23.76,53.421,23.819,53.611,23.882,53.814z" /><path fill="#6A6A69" stroke="#6A6A69" d="M23.703,53.242l1.972,1.885c0.026-0.106,0.052-0.215,0.079-0.323l-2.235-2.14 C23.566,52.812,23.632,53.017,23.703,53.242z" /><path fill="#6B6B6A" stroke="#6B6B6A" d="M23.432,52.41c0.017,0.047,0.047,0.137,0.085,0.254l2.235,2.14 c0.026-0.11,0.052-0.22,0.078-0.326l-2.512-2.403C23.357,52.187,23.39,52.291,23.432,52.41 C23.449,52.457,23.39,52.291,23.432,52.41z" /><path fill="#6C6B6B" stroke="#6C6B6B" d="M23.319,52.073l2.512,2.403c0.026-0.111,0.053-0.221,0.078-0.327l-2.787-2.666 C23.182,51.671,23.25,51.873,23.319,52.073z" /><path fill="#6C6C6C" stroke="#6C6C6C" d="M23.122,51.483l2.787,2.666c0.027-0.112,0.053-0.222,0.078-0.325l-3.043-2.912 C23.002,51.1,23.061,51.291,23.122,51.483z" /><path fill="#6D6D6D" stroke="#6D6D6D" d="M22.944,50.912l3.043,2.912c0.029-0.119,0.056-0.227,0.08-0.324l-3.302-3.162 C22.826,50.53,22.887,50.724,22.944,50.912z" /><path fill="#6E6E6E" stroke="#6E6E6E" d="M22.766,50.337l3.302,3.162c0.033-0.135,0.061-0.244,0.083-0.324l-3.575-3.422 C22.641,49.953,22.707,50.152,22.766,50.337z" /><path fill="#6F6F6E" stroke="#6F6F6E" d="M22.402,49.244c0.065,0.182,0.117,0.342,0.172,0.51l3.575,3.422 c0.021-0.075,0.037-0.129,0.043-0.139c0.018-0.026,0.088-0.041,0.18-0.05l-3.985-3.812C22.395,49.196,22.396,49.224,22.402,49.244 C22.467,49.425,22.396,49.224,22.402,49.244z" /><path fill="#70706F" stroke="#70706F" d="M22.388,49.175l3.985,3.812c0.118-0.011,0.271-0.011,0.41-0.01l-4.459-4.266 C22.33,48.884,22.349,49.042,22.388,49.175z" /><path fill="#717070" stroke="#717070" d="M22.332,48.317c-0.011,0.14-0.012,0.269-0.008,0.396l4.459,4.266 c0.137,0.001,0.256,0.003,0.3-0.006c0.018-0.003,0.038-0.021,0.059-0.051L22.332,48.317z" /><path fill="#727171" stroke="#727171" d="M22.332,48.317l4.81,4.604c0.042-0.055,0.087-0.154,0.127-0.279l-4.9-4.691 C22.351,48.078,22.341,48.197,22.332,48.317z" /><path fill="#737272" stroke="#737272" d="M22.369,47.951l4.9,4.691c0.032-0.098,0.059-0.208,0.08-0.327l-4.917-4.707 C22.409,47.723,22.386,47.837,22.369,47.951z" /><path fill="#747373" stroke="#747373" d="M22.459,47.455c-0.011,0.053-0.018,0.103-0.028,0.153l4.917,4.707 c0.021-0.12,0.034-0.245,0.035-0.368l-4.881-4.67C22.488,47.337,22.473,47.395,22.459,47.455 C22.448,47.507,22.473,47.395,22.459,47.455z" /><path fill="#747474" stroke="#747474" d="M22.502,47.277l4.881,4.67c0.001-0.147-0.012-0.294-0.039-0.439l-4.764-4.557 C22.554,47.057,22.528,47.167,22.502,47.277z" /><path fill="#757574" stroke="#757574" d="M22.582,46.951l4.764,4.557c-0.017-0.146-0.033-0.293-0.055-0.45l-4.621-4.425 C22.64,46.736,22.61,46.839,22.582,46.951z" /><path fill="#767675" stroke="#767675" d="M22.669,46.632l4.621,4.425c-0.021-0.151-0.038-0.308-0.06-0.464l-4.473-4.278 C22.729,46.416,22.7,46.521,22.669,46.632z" /><path fill="#777776" stroke="#777776" d="M22.757,46.314l4.473,4.277c-0.021-0.15-0.042-0.301-0.06-0.455l-4.326-4.143 C22.818,46.094,22.79,46.201,22.757,46.314z" /><path fill="#787877" stroke="#787877" d="M22.909,45.731c-0.016,0.078-0.04,0.171-0.064,0.265l4.326,4.142 c-0.017-0.146-0.022-0.289-0.035-0.437l-4.209-4.029C22.921,45.693,22.913,45.709,22.909,45.731 C22.893,45.809,22.913,45.709,22.909,45.731z" /><path fill="#797878" stroke="#797878" d="M22.926,45.672l4.209,4.029c-0.012-0.145-0.024-0.287-0.028-0.43l-4.087-3.913 C22.984,45.456,22.952,45.559,22.926,45.672z" /><path fill="#7A7979" stroke="#7A7979" d="M23.02,45.359l4.087,3.913c-0.004-0.133,0.005-0.259,0.01-0.39l-3.979-3.81 C23.096,45.163,23.057,45.258,23.02,45.359z" /><path fill="#7B7A7A" stroke="#7B7A7A" d="M23.27,44.797c-0.045,0.088-0.087,0.183-0.131,0.276l3.979,3.81 c0.005-0.127,0.017-0.25,0.032-0.371L23.27,44.797z" /><path fill="#7C7B7B" stroke="#7C7B7B" d="M23.27,44.797l3.879,3.714c0.011-0.086,0.005-0.18,0.022-0.264 c0.007-0.035,0.015-0.062,0.022-0.097l-3.79-3.627C23.362,44.616,23.316,44.707,23.27,44.797z" /><path fill="#7C7C7C" stroke="#7C7C7C" d="M23.404,44.524l3.79,3.627c0.026-0.116,0.052-0.228,0.08-0.325l-3.758-3.599 C23.482,44.33,23.447,44.431,23.404,44.524z" /><path fill="#7D7D7D" stroke="#7D7D7D" d="M23.545,44.146c-0.008,0.029-0.021,0.053-0.03,0.081l3.758,3.599 c0.032-0.115,0.064-0.218,0.097-0.311l-3.751-3.591C23.592,44,23.565,44.076,23.545,44.146 C23.537,44.175,23.565,44.076,23.545,44.146z" /><path fill="#7E7E7E" stroke="#7E7E7E" d="M23.619,43.924l3.751,3.591c0.039-0.111,0.078-0.207,0.116-0.291l-3.752-3.589 C23.69,43.734,23.652,43.831,23.619,43.924z" /><path fill="#7F7F7E" stroke="#7F7F7E" d="M23.734,43.635l3.752,3.589c0.049-0.107,0.095-0.199,0.137-0.271l-3.757-3.598 C23.818,43.451,23.774,43.544,23.734,43.635z" /><path fill="#80807F" stroke="#80807F" d="M23.865,43.355l3.757,3.598c0.065-0.113,0.118-0.192,0.149-0.257l-3.767-3.608 C23.955,43.178,23.909,43.268,23.865,43.355z" /><path fill="#818180" stroke="#818180" d="M24.004,43.088l3.767,3.608c0.038-0.096,0.02-0.311,0.016-0.388l-3.637-3.483 C24.099,42.914,24.052,43.001,24.004,43.088z" /><path fill="#828281" stroke="#828281" d="M24.15,42.826l3.637,3.483c-0.005-0.125-0.015-0.271-0.028-0.429l-3.455-3.31 C24.251,42.655,24.2,42.741,24.15,42.826z" /><path fill="#838382" stroke="#838382" d="M24.304,42.57l3.455,3.309c-0.013-0.145-0.027-0.293-0.045-0.444l-3.253-3.113 C24.408,42.404,24.355,42.487,24.304,42.57z" /><path fill="#848383" stroke="#848383" d="M24.461,42.321l3.253,3.113c-0.019-0.162-0.041-0.32-0.064-0.464l-3.026-2.896 C24.568,42.156,24.515,42.238,24.461,42.321z" /><path fill="#858484" stroke="#858484" d="M24.788,41.831c-0.056,0.08-0.11,0.162-0.165,0.244l3.026,2.896 c-0.001-0.007-0.002-0.014-0.003-0.021c-0.023-0.137-0.042-0.288-0.061-0.439L24.788,41.831z" /><path fill="#868585" stroke="#868585" d="M24.788,41.831l2.797,2.679c-0.018-0.144-0.032-0.293-0.046-0.446l-2.582-2.473 C24.9,41.67,24.844,41.749,24.788,41.831z" /><path fill="#868585" stroke="#868585" d="M28.05,44.553c0.001,0.012,0.003,0.023,0.004,0.036l-0.001-0.033L28.05,44.553z" /><path fill="#868686" stroke="#868686" d="M28.04,44.141l-0.016-0.015c0.005,0.151,0.013,0.296,0.026,0.427l0.003,0.003 L28.04,44.141z" /><path fill="#868686" stroke="#868686" d="M24.957,41.591l2.582,2.473c-0.012-0.143-0.024-0.286-0.033-0.434l-2.378-2.276 C25.071,41.432,25.015,41.51,24.957,41.591z" /><path fill="#878787" stroke="#878787" d="M25.128,41.354l2.378,2.276c-0.009-0.141-0.018-0.282-0.023-0.425l-2.18-2.086 C25.245,41.196,25.187,41.274,25.128,41.354z" /><path fill="#878787" stroke="#878787" d="M28.027,43.727l-0.009-0.009c0,0.141,0.002,0.277,0.007,0.409l0.016,0.015L28.027,43.727 z" /><path fill="#888888" stroke="#888888" d="M25.481,40.887c-0.058,0.074-0.118,0.153-0.178,0.233l2.18,2.086 c-0.006-0.139-0.009-0.277-0.013-0.415L25.481,40.887z" /><path fill="#888888" stroke="#888888" d="M28.02,43.494c-0.001,0.075-0.002,0.149-0.002,0.223l0.009,0.009L28.02,43.494z" /><path fill="#898989" stroke="#898989" d="M27.461,42.384l-1.801-1.725c-0.057,0.072-0.118,0.148-0.18,0.228l1.989,1.904 C27.466,42.653,27.463,42.519,27.461,42.384z" /><path fill="#8A8A8A" stroke="#8A8A8A" d="M27.459,41.979l-1.614-1.546c-0.058,0.069-0.12,0.145-0.185,0.227l1.801,1.725 C27.46,42.247,27.459,42.111,27.459,41.979z" /><path fill="#8B8B8B" stroke="#8B8B8B" d="M27.464,41.582l-1.43-1.37c-0.056,0.063-0.118,0.136-0.188,0.22l1.614,1.546 C27.46,41.841,27.462,41.711,27.464,41.582z" /><path fill="#8C8C8C" stroke="#8C8C8C" d="M27.474,41.188L26.234,40c-0.042,0.039-0.112,0.112-0.2,0.212l1.43,1.37 C27.467,41.443,27.47,41.313,27.474,41.188z" /><path fill="#8D8D8D" stroke="#8D8D8D" d="M27.49,40.802l-0.696-0.667c-0.059-0.024-0.454-0.23-0.559-0.135l1.239,1.188 C27.479,41.05,27.483,40.919,27.49,40.802z" /><path fill="#8E8E8E" stroke="#8E8E8E" d="M27.511,40.474c-0.142-0.085-0.445-0.227-0.717-0.339l0.696,0.667 C27.496,40.682,27.503,40.567,27.511,40.474C27.369,40.389,27.503,40.567,27.511,40.474z" /><path fill="#666666" stroke="#666666" d="M37.752,30.704c-0.053,0.083-0.113,0.151-0.163,0.24 c-0.722-0.317-2.432,2.784-3.084,3.355c0.2,0.317,0.409,0.595,0.613,0.905c-0.011-0.033,4.128,1.744,5.619,0.611 c0.084,0.074,0.172,0.129,0.258,0.188L37.752,30.704z" /><path fill="#666666" stroke="#666666" d="M37.981,30.364c-0.08,0.105-0.155,0.223-0.229,0.34l3.243,5.299 c0.202,0.136,0.409,0.234,0.62,0.297L37.981,30.364z" /><path fill="#676767" stroke="#676767" d="M37.981,30.364l3.633,5.937c0.164,0.049,0.329,0.08,0.496,0.096l-3.874-6.328 C38.15,30.164,38.063,30.258,37.981,30.364z" /><path fill="#686868" stroke="#686868" d="M38.237,30.069l3.874,6.328c0.148,0.015,0.296,0.02,0.446,0.016l-4.054-6.62 C38.411,29.876,38.325,29.974,38.237,30.069z" /><path fill="#696968" stroke="#696968" d="M38.503,29.792l4.054,6.62c0.139-0.004,0.278-0.013,0.417-0.029l-4.178-6.827 C38.697,29.632,38.598,29.706,38.503,29.792z" /><path fill="#6A6A69" stroke="#6A6A69" d="M38.796,29.557l4.178,6.827c0.135-0.015,0.27-0.032,0.405-0.052l-4.281-6.996 C38.995,29.401,38.896,29.481,38.796,29.557z" /><path fill="#6B6B6A" stroke="#6B6B6A" d="M39.099,29.336l4.281,6.996c0.133-0.02,0.266-0.041,0.399-0.062l-4.352-7.11 C39.317,29.216,39.206,29.269,39.099,29.336z" /><path fill="#6C6B6B" stroke="#6C6B6B" d="M39.763,28.991c-0.115,0.047-0.224,0.111-0.335,0.168l4.352,7.11 c0.134-0.022,0.267-0.042,0.4-0.061L39.763,28.991z" /><path fill="#6C6C6C" stroke="#6C6C6C" d="M40.123,28.872c-0.121,0.039-0.243,0.071-0.36,0.12l4.417,7.217 c0.135-0.02,0.27-0.035,0.404-0.047L40.123,28.872z" /><path fill="#6D6D6D" stroke="#6D6D6D" d="M40.492,28.76c-0.125,0.03-0.247,0.072-0.369,0.112l4.461,7.29 c0.143-0.013,0.285-0.019,0.426-0.019L40.492,28.76z" /><path fill="#6E6E6E" stroke="#6E6E6E" d="M40.883,28.683c-0.131,0.023-0.262,0.045-0.391,0.077l4.518,7.382 c0.154,0,0.308,0.012,0.458,0.035L40.883,28.683z" /><path fill="#6F6F6E" stroke="#6F6F6E" d="M41.284,28.625c-0.135,0.015-0.268,0.036-0.401,0.059l4.586,7.494 c0.176,0.027,0.35,0.066,0.52,0.134L41.284,28.625z" /><path fill="#70706F" stroke="#70706F" d="M43.601,31.699c-0.35-0.01-0.55-0.204-0.354-0.579l-1.552-2.534 c-0.137,0.008-0.274,0.023-0.41,0.039l4.704,7.687c0.253,0.102,0.496,0.257,0.73,0.481L43.601,31.699z" /><path fill="#717070" stroke="#717070" d="M44.003,31.642c-0.144,0.04-0.282,0.061-0.402,0.058l3.118,5.093 c0.12,0.116,0.239,0.249,0.354,0.405c0.305,0.428,0.665,0.832,1.059,1.188L44.003,31.642z" /><path fill="#717070" stroke="#717070" d="M43.246,31.12c0.05-0.097,0.13-0.206,0.237-0.327l-1.359-2.219 c-0.144,0.002-0.287,0.004-0.43,0.012L43.246,31.12z" /><path fill="#727171" stroke="#727171" d="M44.003,31.642l4.129,6.744c0.263,0.236,0.537,0.448,0.824,0.63l-4.601-7.512 C44.237,31.564,44.119,31.609,44.003,31.642z" /><path fill="#727171" stroke="#727171" d="M43.483,30.793c0.075-0.083,0.166-0.174,0.272-0.27l-1.194-1.95 c-0.032,0-0.062-0.004-0.094-0.004c-0.114-0.002-0.229,0.003-0.343,0.004L43.483,30.793z" /><path fill="#737272" stroke="#737272" d="M44.356,31.504l4.601,7.512c0.213,0.136,0.43,0.256,0.649,0.354l-4.937-8.066 C44.568,31.381,44.464,31.45,44.356,31.504z" /><path fill="#737272" stroke="#737272" d="M43.756,30.523c0.053-0.048,0.096-0.092,0.157-0.143 c0.044-0.031,0.089-0.062,0.134-0.094l-1.035-1.691c-0.15-0.008-0.298-0.018-0.45-0.021L43.756,30.523z" /><path fill="#747373" stroke="#747373" d="M44.67,31.304l4.937,8.066c0.184,0.081,0.369,0.143,0.555,0.192l-5.212-8.518 C44.863,31.142,44.769,31.228,44.67,31.304z" /><path fill="#747373" stroke="#747373" d="M44.047,30.287c0.101-0.071,0.203-0.145,0.303-0.219l-0.885-1.446 c-0.149-0.012-0.301-0.018-0.454-0.026L44.047,30.287z" /><path fill="#747474" stroke="#747474" d="M44.351,30.067c0.103-0.076,0.203-0.154,0.296-0.231l-0.717-1.171 c-0.153-0.016-0.306-0.031-0.464-0.044L44.351,30.067z" /><path fill="#747474" stroke="#747474" d="M46.23,32.424l-1.05-1.715c-0.064,0.125-0.145,0.234-0.232,0.335l5.214,8.518 c0.164,0.044,0.328,0.075,0.492,0.091l-4.172-6.816C46.314,32.734,46.232,32.579,46.23,32.424z" /><path fill="#757574" stroke="#757574" d="M46.442,32.061l-1.087-1.776c-0.019,0.048-0.037,0.083-0.056,0.136 c-0.031,0.102-0.071,0.197-0.118,0.287l1.05,1.715C46.229,32.274,46.302,32.14,46.442,32.061z" /><path fill="#757574" stroke="#757574" d="M46.482,32.836l4.172,6.816c0.146,0.014,0.293,0.018,0.438,0.007l-4.119-6.732 C46.769,32.937,46.601,32.908,46.482,32.836z" /><path fill="#757574" stroke="#757574" d="M44.646,29.836c0.104-0.085,0.197-0.171,0.278-0.255l-0.532-0.869 c-0.05-0.006-0.093-0.013-0.148-0.018c-0.102-0.011-0.21-0.019-0.314-0.029L44.646,29.836z" /><path fill="#767675" stroke="#767675" d="M46.442,32.061c0.103-0.058,0.235-0.081,0.409-0.046l-1.311-2.142 c-0.058,0.11-0.12,0.247-0.186,0.412L46.442,32.061z" /><path fill="#767675" stroke="#767675" d="M44.924,29.581c0.111-0.116,0.195-0.229,0.234-0.333l-0.26-0.425 c-0.122-0.048-0.289-0.086-0.505-0.112L44.924,29.581z" /><path fill="#767675" stroke="#767675" d="M47.169,32.921c-0.076,0.015-0.131,0.003-0.196,0.007l4.12,6.732 c0.135-0.009,0.268-0.03,0.398-0.062l-4.088-6.68C47.315,32.918,47.236,32.919,47.169,32.921 C47.093,32.936,47.236,32.919,47.169,32.921z" /><path fill="#777776" stroke="#777776" d="M47.848,32.929c-0.162-0.007-0.313-0.011-0.443-0.011l4.089,6.68 c0.123-0.029,0.242-0.071,0.362-0.122L47.848,32.929z" /><path fill="#777776" stroke="#777776" d="M44.898,28.824l0.26,0.425C45.223,29.075,45.158,28.927,44.898,28.824z" /><path fill="#777776" stroke="#777776" d="M46.852,32.015c0.108,0.022,0.226,0.056,0.358,0.128 c-0.219-0.221-0.389-0.673-0.543-1.144l-0.896-1.463c-0.071,0.061-0.149,0.181-0.231,0.336L46.852,32.015z" /><path fill="#787877" stroke="#787877" d="M45.772,29.537L46.667,31C46.384,30.135,46.153,29.208,45.772,29.537z" /><path fill="#787877" stroke="#787877" d="M48.303,32.956c-0.159-0.013-0.312-0.021-0.455-0.027l4.008,6.547 c0.112-0.047,0.224-0.106,0.331-0.173L48.303,32.956z" /><path fill="#797878" stroke="#797878" d="M48.771,33.006c-0.158-0.021-0.314-0.037-0.468-0.05l3.884,6.347 c0.104-0.064,0.204-0.136,0.305-0.219L48.771,33.006z" /><path fill="#7A7979" stroke="#7A7979" d="M48.771,33.006l3.721,6.078c0.094-0.079,0.188-0.161,0.276-0.257l-1.899-3.104 c-0.398-0.218-0.736-0.487-0.884-0.95c0.077-0.064,0.13-0.122,0.19-0.182l-0.922-1.506C49.095,33.053,48.934,33.027,48.771,33.006 z" /><path fill="#7B7A7A" stroke="#7B7A7A" d="M52.768,38.827c0.087-0.092,0.171-0.192,0.254-0.301l-1.53-2.499 c-0.214-0.099-0.426-0.196-0.623-0.305L52.768,38.827z" /><path fill="#7B7A7A" stroke="#7B7A7A" d="M49.253,33.084l0.922,1.506c0.107-0.107,0.191-0.208,0.253-0.301l-0.657-1.074 C49.61,33.163,49.436,33.121,49.253,33.084z" /><path fill="#7C7B7B" stroke="#7C7B7B" d="M53.021,38.525c0.014-0.018,0.027-0.031,0.041-0.049c0.02-0.224,0.014-0.419-0.005-0.602 l-0.923-1.508c-0.203-0.129-0.424-0.238-0.645-0.34L53.021,38.525z" /><path fill="#7C7B7B" stroke="#7C7B7B" d="M50.428,34.289c0.128-0.199,0.166-0.374,0.116-0.52l-0.116-0.193 c-0.14-0.152-0.375-0.27-0.657-0.361L50.428,34.289z" /><path fill="#7C7C7C" stroke="#7C7C7C" d="M53.058,37.875c-0.073-0.781-0.449-1.208-0.924-1.508L53.058,37.875z" /><path fill="#7C7C7C" stroke="#7C7C7C" d="M50.428,33.576l0.116,0.193C50.522,33.699,50.481,33.635,50.428,33.576z" /><path fill="#FFFFFF" stroke="#FFFFFF" d="M42.522,46.735c0.119,1.358,0.657,2.405,1.358,3.181 c0.667-2.631,2.631-4.037,4.681-4.024c0.356,0.003,0.716,0.087,1.069,0.196c-0.192-0.798-0.45-1.461-0.769-1.979 c-0.684-1.109-1.625-1.608-2.776-1.443c-1.374,0.197-2.352,1.281-2.955,2.424C42.829,45.663,42.479,46.24,42.522,46.735 C42.641,48.093,42.479,46.24,42.522,46.735z" /><path fill="#010202" stroke="#010202" d="M43.88,49.916c1.091,1.205,2.581,1.744,3.524,1.719c0.777-0.021,1.438-0.309,1.908-0.73 c0.469-0.42,0.723-0.957,0.707-1.505c-0.029-1.293-0.165-2.394-0.389-3.312c-0.354-0.108-0.713-0.192-1.069-0.196 C46.512,45.878,44.547,47.285,43.88,49.916C44.971,51.121,44.547,47.285,43.88,49.916z" /><path fill="#EAEAEA" stroke="#EAEAEA" d="M52.123,57.636l-0.728,1.857c-0.217,0.707-0.382,1.412-0.542,2.09 c-0.379,1.604-1.396,2.779-2.241,4.524c-0.179,0.368-0.349,0.778-0.511,1.222c1.818,3.647,5.464,10.131,8.6,10.371 c0.684,0.053,0.946,0.192,2.948-0.562l2.19-0.997c0.608-0.354,1.186-0.755,1.729-1.193c-0.21-0.09-0.938-0.433-0.979-1.785 c-0.215-1.795,1.037-3.617,1.414-5.717l0.312-0.228c0.004,2.481-1.079,5.099-1.009,6.524c0.408,0.194,0.917,1.299,2.033,0.686 c1.037-0.568,1.522-1.307,1.953-2.633c0.428-1.327,0.572-3.062,0.541-4.911c-0.062-3.556-1.865-4.212-2.375-4.919 c-0.531-0.742-1.901-1.971-2.207-2.211l-0.851-1.191c-1.403-1.385-3.157-2.954-5.037-5.514 C54.479,54.264,52.994,55.903,52.123,57.636z" /><path fill="#EAEAEA" stroke="#EAEAEA" d="M52.744,56.053c0.191-0.226,0.398-0.449,0.625-0.668 c-0.188,0.177-0.386,0.372-0.595,0.592L52.744,56.053z" /><path fill="#EAEAEA" stroke="#EAEAEA" d="M48.871,73.167c0,0-0.397,2.063-0.515,2.102l-0.004,0.009c0,0,2.728,1.826,5.097,2.114 c-0.33-0.316-1.781-2.215-2.182-2.705c-0.771-0.87-1.518-2.109-1.518-2.109l-0.015,0.025L48.871,73.167z" /><path fill="#EAEAEA" stroke="#EAEAEA" d="M46.876,74.224c0.502,0.398,0.996,0.762,1.461,1.044 c0.043-0.077,0.332-2.688,0.332-2.688l1.066,0.018v0.001l0.014-0.021c-0.545-1.81-1.223-3.373-1.838-4.697 C47.41,69.434,47.022,71.457,46.876,74.224C47.378,74.623,47.022,71.457,46.876,74.224z" /><polygon fill="#EAEAEA" stroke="#EAEAEA" points="48.345,75.272 48.353,75.277 48.356,75.269 		" /><path fill="#EBEBEB" stroke="#EBEBEB" d="M29.766,37.799l0.011-0.019l-0.117-0.12C29.706,37.719,29.742,37.767,29.766,37.799z" /><path fill="#ECECEC" stroke="#ECECEC" d="M27.562,35.124c0.975,1.159,1.78,2.134,2.097,2.537l0.117,0.12l0.077-0.137l0.062-0.109 L27.562,35.124z" /><path fill="#EDEDED" stroke="#EDEDED" d="M27.562,35.124l2.352,2.41l0.14-0.25l-5.151-5.278 C25.76,32.994,26.719,34.121,27.562,35.124z" /><path fill="#EEEEEE" stroke="#EEEEEE" d="M23.065,29.942c0.442,0.47,1.103,1.216,1.838,2.064l5.151,5.278l0.139-0.249 L18.892,25.454C20.156,26.844,21.617,28.403,23.065,29.942C23.507,30.412,21.617,28.403,23.065,29.942z" /><path fill="#EFEFEF" stroke="#EFEFEF" d="M18.202,24.694c0.217,0.243,0.457,0.504,0.689,0.76l11.302,11.581l0.14-0.25L16.02,22.12 C16.528,22.779,17.293,23.679,18.202,24.694C18.419,24.937,17.293,23.679,18.202,24.694z" /><path fill="#F0F0F0" stroke="#F0F0F0" d="M15.44,21.287c0.104,0.191,0.307,0.479,0.579,0.833l14.313,14.666l0.139-0.248 l-15.21-15.585C15.325,21.073,15.386,21.187,15.44,21.287C15.544,21.478,15.386,21.187,15.44,21.287z" /><path fill="#F1F1F1" stroke="#F1F1F1" d="M15.262,20.953l15.21,15.585l0.139-0.248L14.832,20.122 C14.989,20.43,15.134,20.711,15.262,20.953z" /><path fill="#F1F1F1" stroke="#F1F1F1" d="M14.832,20.122L30.611,36.29l0.141-0.251L14.427,19.312 C14.568,19.599,14.704,19.87,14.832,20.122z" /><path fill="#F2F2F2" stroke="#F2F2F2" d="M14.427,19.312l16.324,16.726l0.139-0.248L14.048,18.534 C14.177,18.802,14.304,19.062,14.427,19.312z" /><path fill="#F3F3F3" stroke="#F3F3F3" d="M14.048,18.534L30.89,35.791l0.139-0.249L13.688,17.774 C13.81,18.033,13.93,18.286,14.048,18.534z" /><path fill="#F4F4F4" stroke="#F4F4F4" d="M13.688,17.774l17.341,17.768l0.139-0.248l-17.82-18.259 C13.461,17.284,13.575,17.53,13.688,17.774z" /><path fill="#F5F5F5" stroke="#F5F5F5" d="M30.988,34.718l-18.07-18.515c0.165,0.296,0.316,0.581,0.43,0.831v0.001l17.82,18.259 l0.1-0.179l-0.187-0.168C31.055,34.872,31.02,34.795,30.988,34.718z" /><path fill="#F6F6F6" stroke="#F6F6F6" d="M30.546,33.872L12.353,15.229c0.202,0.336,0.392,0.663,0.565,0.974l18.07,18.515 C30.875,34.45,30.726,34.17,30.546,33.872z" /><path fill="#F7F7F7" stroke="#F7F7F7" d="M29.815,32.732L11.738,14.209c0.204,0.338,0.411,0.68,0.615,1.021l18.194,18.642 C30.338,33.525,30.094,33.152,29.815,32.732z" /><path fill="#F8F8F8" stroke="#F8F8F8" d="M29.815,32.732c-0.232-0.351-0.484-0.735-0.752-1.161L11.172,13.239 c0.173,0.308,0.363,0.632,0.566,0.97L29.815,32.732z" /><path fill="#F8F8F9" stroke="#F8F8F9" d="M28.679,30.943c-0.08-0.135-0.169-0.278-0.252-0.415l-17.69-18.125 c0.112,0.247,0.266,0.534,0.435,0.836l17.892,18.333C28.938,31.371,28.81,31.163,28.679,30.943z" /><path fill="#F9F9F9" stroke="#F9F9F9" d="M27.799,29.494L10.722,11.996c-0.054-0.025-0.12-0.06-0.168-0.081 c0.038,0.141,0.102,0.306,0.184,0.488l17.689,18.125C28.221,30.187,28.017,29.846,27.799,29.494z" /><path fill="#FAFAFA" stroke="#FAFAFA" d="M27.108,28.391L11.5,12.396c-0.296-0.162-0.557-0.296-0.778-0.4l17.077,17.498 C27.575,29.131,27.341,28.761,27.108,28.391z" /><path fill="#FBFBFB" stroke="#FBFBFB" d="M26.392,27.267L12.336,12.865c-0.298-0.171-0.575-0.326-0.837-0.469l15.608,15.995 C26.872,28.017,26.634,27.644,26.392,27.267z" /><path fill="#FCFCFC" stroke="#FCFCFC" d="M25.637,26.102L13.222,13.38c-0.301-0.176-0.599-0.35-0.885-0.515l14.055,14.402 C26.141,26.877,25.891,26.49,25.637,26.102z" /><path fill="#FDFDFD" stroke="#FDFDFD" d="M24.906,24.992c-0.019-0.029-0.042-0.063-0.062-0.094L14.118,13.906 c-0.296-0.174-0.596-0.35-0.896-0.526l12.415,12.722C25.393,25.73,25.149,25.357,24.906,24.992 C24.887,24.963,25.149,25.357,24.906,24.992z" /><path fill="#FDFDFD" stroke="#FDFDFD" d="M24.031,23.674l-9.028-9.252c-0.283-0.163-0.578-0.335-0.885-0.516l10.725,10.992 C24.612,24.551,24.336,24.135,24.031,23.674z" /><path fill="#FEFEFE" stroke="#FEFEFE" d="M23.224,22.455l-7.377-7.559c-0.251-0.136-0.538-0.299-0.843-0.474l9.028,9.252 C23.776,23.289,23.503,22.876,23.224,22.455z" /><path fill="#FFFFFF" stroke="#FFFFFF" d="M22.418,21.238l-5.681-5.821c-0.285-0.178-0.564-0.345-0.82-0.482 c-0.021-0.012-0.049-0.027-0.071-0.04l7.377,7.559C22.956,22.05,22.685,21.641,22.418,21.238z" /><path fill="#FFFFFF" stroke="#FFFFFF" d="M20.232,17.958c-0.125-0.173-1.942-1.576-3.495-2.54l5.681,5.821 C21.356,19.635,20.391,18.179,20.232,17.958C20.107,17.785,20.391,18.179,20.232,17.958z" /><path fill="#010202" stroke="#010202" d="M14.458,54.389c0.103-0.041,0.196-0.087,0.295-0.13c0.086-0.038,0.17-0.076,0.253-0.114 c-0.767,0.308-1.556,0.586-2.317,0.829c0.134-0.037,0.26-0.076,0.389-0.114c0.171-0.051,0.348-0.1,0.51-0.153 C13.891,54.606,14.181,54.501,14.458,54.389C14.561,54.348,14.181,54.501,14.458,54.389z" /><path fill="#010202" stroke="#010202" d="M12.566,55.012c0.041-0.013,0.081-0.025,0.123-0.038 c-0.042,0.011-0.08,0.023-0.123,0.036C12.566,55.01,12.566,55.011,12.566,55.012C12.607,55,12.566,55.011,12.566,55.012z" /><path fill="#010202" stroke="#010202" d="M47.396,52.216c0.236-0.006,0.464-0.041,0.686-0.092 c0.571-0.129,1.086-0.392,1.486-0.748c0.417-0.377,0.721-0.881,0.838-1.445c0.038-0.184,0.057-0.372,0.053-0.564 c-0.049-2.121-0.379-3.79-0.947-5.011c-0.102-0.216-0.206-0.423-0.321-0.61c-0.444-0.722-1.009-1.205-1.647-1.456 c-0.467-0.182-0.972-0.245-1.506-0.168c-0.819,0.117-1.508,0.515-2.076,1.049c-0.486,0.456-0.884,1.009-1.188,1.585 c-0.217,0.409-0.43,0.82-0.557,1.219c-0.067,0.211-0.116,0.418-0.114,0.618C42.137,50.626,45.699,52.264,47.396,52.216 C47.632,52.21,45.699,52.264,47.396,52.216z M46.085,42.667c1.152-0.166,2.095,0.333,2.777,1.443 c0.317,0.516,0.575,1.18,0.77,1.979c0.223,0.918,0.357,2.018,0.388,3.311c0.017,0.548-0.237,1.085-0.707,1.505 c-0.47,0.423-1.131,0.709-1.908,0.73c-0.942,0.024-2.433-0.513-3.524-1.72c-0.701-0.773-1.239-1.82-1.358-3.18 c-0.044-0.494,0.307-1.073,0.609-1.645C43.735,43.947,44.713,42.864,46.085,42.667C47.238,42.501,44.713,42.864,46.085,42.667z" /><path fill="#010202" stroke="#010202" d="M47.05,65.125l-0.438-0.045c0.27,0.651,0.662,1.446,1.098,2.367 c0.066-0.171,0.138-0.33,0.207-0.49C47.501,66.109,47.201,65.453,47.05,65.125z" /><path fill="#010202" stroke="#010202" d="M17.759,52.771c0.483-0.314,0.896-0.646,1.192-0.994c0.587-0.688,0.893-1.02,1.097-1.242 c0.464-0.51,0.392-0.47,1.787-2.758c0.067-0.109,0.127-0.209,0.201-0.329c-0.03,0.149-0.057,0.304-0.08,0.456 c-0.085,0.555-0.11,1.122,0.062,1.605c0.417,1.166,0.604,1.975,1.03,3.166c0.059,0.166,0.265,0.816,0.474,1.505 c0.246,0.809,0.497,1.672,0.524,1.875c0.084,0.619,0.263,1.302,0.568,1.852c0.254,0.457,0.928-0.702,1.023-0.931 c0.052-0.127,0.105-0.271,0.159-0.412c0.118-0.312,0.238-0.639,0.373-0.98c0.078-0.199,0.293-1.967,0.325-2.097 c0.006-0.026-0.006-0.003,0-0.021c0.132,0.041,0.437,0.006,0.703-0.066c0.213-0.059,0.402-0.139,0.454-0.227 c0.231-0.387,0.217-0.896,0.168-1.454c-0.07-0.82-0.245-1.8-0.27-2.587c-0.009-0.283,0-0.547,0.044-0.762 c0.198-0.969,0.662-1.146,0.826-1.506c0.071-0.154-0.144-1.072-0.278-1.75c-0.021-0.106-0.04-0.207-0.056-0.297 c-0.012-0.071-0.022-0.149-0.031-0.23c-0.001-0.012-0.003-0.023-0.004-0.036c-0.013-0.131-0.021-0.276-0.026-0.427 c-0.008-0.21-0.008-0.421-0.005-0.632c0.017-0.986,0.103-1.973,0.22-2.952c0.084,0.104,0.159,0.197,0.238,0.295 c0.563,0.698,1.009,1.261,1.346,1.946l0.163-0.211c-0.057-0.116-0.125-0.232-0.187-0.349c-1.875-3.494-6.312-7.366-10.683-11.546 c-4.516-4.319-8.728-9.042-9.368-13.836c-0.014-0.101-0.033-0.219-0.054-0.343c-0.249-1.451-0.997-4.373-1.475-6.184 C7.976,9.395,7.803,8.761,7.803,8.761c1.258,0.441,3.007,0.987,4.788,1.507c0.437,0.127,0.874,0.253,1.308,0.376 c2.203,0.623,4.366,1.388,5.708,2.423c0.125,0.097,0.243,0.208,0.367,0.309c1.425,1.159,2.72,2.558,3.931,4.123 c2.915,3.77,5.357,8.479,8.008,13.035c1.38,2.372,2.817,4.702,4.411,6.829l0.363,0.122c-0.293-0.389-0.545-0.813-0.827-1.218 c0.302-0.006,0.862-0.009,1.529,0.011c1.524,0.046,3.617,0.211,4.541,0.725c0.159-0.036,0.317-0.068,0.476-0.099 c2.11-0.405,4.239-0.278,5.766,2.1c0.312,0.644,1.023,0.932,1.67,1.06c0.664,0.132,1.258,0.095,1.258,0.095 c0.223,0.672,0.447,1.31,0.673,1.931c1.472,4.047,2.994,7.029,4.472,9.326c0.35,0.543,0.695,1.051,1.039,1.522 c0.018-0.008,0.031-0.017,0.049-0.022l0.142,0.088c-0.037,0.017-0.069,0.033-0.104,0.049c1.879,2.56,3.633,4.129,5.036,5.514 l0.851,1.191c0.306,0.24,1.676,1.469,2.207,2.212c0.51,0.706,2.312,1.362,2.375,4.918c0.031,1.851-0.113,3.584-0.541,4.911 c-0.43,1.326-0.916,2.063-1.952,2.633c-1.117,0.613-1.626-0.49-2.034-0.686c-0.07-1.427,1.013-4.043,1.009-6.524l-0.312,0.228 c-0.377,2.1-1.629,3.922-1.414,5.717c0.041,1.354,0.769,1.695,0.979,1.785c-0.543,0.438-1.119,0.84-1.728,1.193 c-0.414,0.241-0.843,0.464-1.291,0.646c-0.337,0.136-0.632,0.25-0.9,0.352c-2.002,0.754-2.265,0.613-2.948,0.562 c-3.136-0.242-6.781-6.725-8.6-10.373c-0.064,0.178-0.128,0.361-0.189,0.551c0.615,1.324,1.293,2.889,1.838,4.697 c0,0,0.746,1.239,1.519,2.109c0.399,0.49,1.853,2.389,2.183,2.705c-2.369-0.288-5.098-2.114-5.098-2.114 c-0.014-0.015-0.016,0.009-0.016-0.01c-0.465-0.282-0.959-0.646-1.461-1.044c-0.004,0.068-0.01,0.13-0.014,0.199L46.4,74.216 c0.006-0.129,0.02-0.237,0.025-0.361c-1.34-1.137-2.722-2.632-3.911-4.387c-0.978-1.443-1.826-3.049-2.385-4.762 c-0.582-1.781-1.589-3.571-2.598-5.103c-0.34-0.517-0.68-1.003-1.004-1.449l-0.268,0.114l-0.04,0.018 c0.831,1.145,1.651,2.799,2.44,4.453c-0.107,0.723-0.19,1.537-0.254,2.417c-0.098,1.359-0.148,2.876-0.163,4.462 c-0.002,0.185-0.002,0.369-0.003,0.555c0.014-0.172,0.027-0.346,0.041-0.516c0.126-1.539,0.259-2.96,0.397-4.216 c0.097-0.873,0.196-1.671,0.297-2.369c0.001,0.003,0.003,0.009,0.005,0.011c0.033,0.07,0.074,0.164,0.113,0.25 c0.233,0.518,0.541,1.252,0.669,1.679c0.003,0.012,0.009,0.022,0.012,0.034c1.252,4.121,5.66,9.233,8.307,10.811 c-0.031,0.07,2.023,1.598,3.873,2.096c2.068,0.823,5.629,0.631,8.721-0.619c1.25-0.504,2.402-0.873,3.426-1.758 c0.468,0.041,0.979-0.449,1.513-0.75c0.001-0.005,0.013,0,0.017,0c0.887-0.351,1.58-1.389,2.041-2.81 c0.463-1.429,0.689-3.251,0.59-5.183c-0.178-3.42-1.67-4.482-4.383-7.069c-0.209-0.288-1.053-1.277-1.416-1.675 c-3.037-3.291-6.851-5.896-10.895-17.954c-0.02-0.058-0.038-0.108-0.059-0.166c0.365-0.085,0.758-0.089,1.084-0.197 c0.344-0.172,0.57-0.42,0.713-0.708c0.062-0.127,0.113-0.259,0.145-0.4c0.008-0.039,0.008-0.081,0.014-0.121 c0.013-0.078,0.025-0.155,0.027-0.236c0.002-0.022-0.003-0.045-0.003-0.067c0.005-1.329-1.095-2.923-2.108-3.017 c-1.7,0.037-0.117-1.259,0.809-1.99c-0.074-0.111-0.785,0-1.01,0.176c-0.489-0.511-1.143-0.664-1.791-0.805 c-1.034-0.223-2.063-0.414-2.428-1.962c-0.017-0.102-0.049-0.178-0.069-0.273c0.041-0.112,0.086-0.223,0.128-0.334 c2.6-6.808,7.229-12.817,7.722-20.288c0.136-2.046-0.038-4.201-0.651-6.513l-0.592,0.801c0,0,0,0.001-0.002,0.001 c-1.843,1.042-3.41,2.43-4.756,4.068c-0.439,0.535-0.847,1.105-1.238,1.691c-0.609,0.907-1.168,1.869-1.677,2.877 c-0.513,1.014-0.979,2.071-1.405,3.162c-0.07,0.181-0.141,0.361-0.208,0.543c-0.059,0.158-0.124,0.312-0.181,0.47 c-0.01,0.026-0.018,0.054-0.027,0.08c-1.166,3.243-2.007,6.722-2.689,10.127h-0.014l-0.178,1.087 c-0.72,0.116-1.435,0.28-2.124,0.558c-0.143,0.057-0.285,0.113-0.425,0.181l0,0c-0.098,0.149-0.223,0.315-0.348,0.48 c-0.283,0.377-0.618,0.784-0.982,1.204c-1.18,1.363-2.584,2.805-2.963,3.364c-4.701-7.533-8.404-16.7-14.458-21.363 c-1.13-0.871-2.722-1.52-4.432-2.064c-0.458-0.146-0.924-0.286-1.393-0.418c-0.687-0.194-1.43-0.409-2.173-0.622 c-1.05-0.299-2.099-0.593-2.986-0.81C8.328,8.527,7.874,8.429,7.502,8.368c0.05,0.579,0.507,2.5,0.957,4.43 c0.265,1.137,0.525,2.27,0.699,3.141c0.081,0.402,0.145,0.754,0.18,1.014c0.326,2.438,1.472,4.777,3.063,7.024 c0.207,0.292,0.42,0.583,0.642,0.872c1.671,2.183,3.726,4.279,5.833,6.293c3.309,3.165,8.562,8.437,8.562,8.437 c-0.26-0.149-0.267,0.046-0.626-0.088c-0.972-0.362-1.793,1.053-2.244,1.722c-0.021,0.032-0.038,0.063-0.059,0.095 c-0.177,0.272-0.334,0.548-0.436,0.806c-0.127,0.325-0.26,0.594-0.392,0.84c-0.162,0.301-0.324,0.567-0.48,0.838 c-0.283,0.492-0.556,1.024-0.712,1.797c-0.003,0.012-0.013,0.064-0.016,0.079c-0.869,1.434-1.354,2.279-1.723,2.896 c-0.381,0.639-0.643,1.035-1.074,1.582c-0.253,0.32-0.563,0.691-0.996,1.2c-0.311,0.364-0.635,0.694-0.973,1.007 c-0.022,0.021-0.045,0.044-0.068,0.064c-0.039,0.035-0.075,0.074-0.114,0.107c-0.106,0.094-0.218,0.18-0.328,0.27 c-0.054,0.043-0.108,0.088-0.164,0.131c-0.139,0.107-0.282,0.212-0.428,0.312c-0.075,0.053-0.15,0.102-0.227,0.151 c-0.139,0.091-0.28,0.181-0.426,0.267c-0.097,0.057-0.198,0.109-0.298,0.164c-0.137,0.074-0.272,0.149-0.416,0.221 c-0.075,0.035-0.156,0.068-0.232,0.104c0.017-0.007,0.033-0.014,0.049-0.021C16.053,53.722,16.999,53.269,17.759,52.771 C18.242,52.457,16.999,53.269,17.759,52.771z M50.428,33.576c0.054,0.059,0.095,0.123,0.116,0.193 c0.05,0.146,0.012,0.321-0.116,0.52c-0.062,0.094-0.146,0.194-0.253,0.301c-0.062,0.06-0.113,0.118-0.19,0.182 c0.147,0.462,0.484,0.732,0.884,0.95c0.197,0.108,0.409,0.206,0.623,0.305c0.221,0.102,0.44,0.21,0.645,0.34 c0.474,0.299,0.85,0.727,0.923,1.508c0.019,0.183,0.024,0.377,0.005,0.602c-0.092,0.121-0.19,0.24-0.295,0.35 c-0.09,0.096-0.184,0.179-0.277,0.257c-0.1,0.083-0.199,0.155-0.304,0.219c-0.108,0.067-0.219,0.126-0.331,0.173 c-0.12,0.051-0.24,0.092-0.363,0.122c-0.132,0.032-0.265,0.053-0.398,0.062c-0.146,0.01-0.292,0.007-0.438-0.007 c-0.164-0.016-0.328-0.047-0.494-0.091c-0.186-0.049-0.371-0.111-0.555-0.192c-0.221-0.097-0.438-0.218-0.65-0.354 c-0.285-0.182-0.562-0.394-0.822-0.63c-0.395-0.356-0.756-0.761-1.059-1.188c-0.115-0.156-0.234-0.29-0.355-0.405 c-0.234-0.224-0.479-0.379-0.73-0.481c-0.169-0.068-0.344-0.107-0.52-0.134c-0.151-0.023-0.304-0.034-0.458-0.035 c-0.141,0-0.283,0.006-0.426,0.019c-0.134,0.012-0.269,0.027-0.404,0.047c-0.267,0.04-0.532,0.083-0.799,0.123 c-0.135,0.021-0.271,0.038-0.405,0.052c-0.14,0.016-0.279,0.025-0.417,0.029c-0.15,0.004-0.298-0.001-0.446-0.016 c-0.167-0.016-0.333-0.047-0.496-0.096c-0.211-0.063-0.417-0.162-0.62-0.297c-0.086-0.058-0.174-0.113-0.258-0.188 c-1.491,1.132-5.63-0.645-5.619-0.611c-0.205-0.31-0.414-0.587-0.613-0.905c0.652-0.571,2.363-3.673,3.084-3.355 c0.05-0.089,0.11-0.158,0.163-0.24c0.075-0.117,0.149-0.235,0.229-0.34c0.082-0.106,0.169-0.201,0.256-0.295 c0.087-0.095,0.174-0.192,0.266-0.276c0.094-0.086,0.194-0.161,0.293-0.236c0.1-0.076,0.198-0.155,0.302-0.221 c0.218-0.121,0.439-0.236,0.664-0.345c0.117-0.048,0.24-0.081,0.36-0.12c0.122-0.04,0.244-0.082,0.369-0.112 c0.128-0.031,0.26-0.054,0.391-0.077c0.133-0.023,0.266-0.043,0.401-0.059c0.136-0.016,0.273-0.03,0.41-0.039 c0.144-0.008,0.287-0.01,0.43-0.012c0.114-0.001,0.229-0.007,0.343-0.004c0.032,0,0.062,0.004,0.094,0.004 c0.152,0.004,0.3,0.014,0.45,0.021c0.152,0.008,0.304,0.014,0.454,0.026c0.158,0.013,0.311,0.028,0.464,0.044 c0.104,0.01,0.212,0.018,0.314,0.029c0.055,0.004,0.099,0.012,0.148,0.018c0.217,0.025,0.384,0.063,0.505,0.112 c0.26,0.103,0.325,0.251,0.26,0.425c-0.039,0.104-0.123,0.216-0.234,0.333c-0.081,0.084-0.174,0.169-0.278,0.255 c-0.093,0.078-0.193,0.155-0.296,0.231c-0.144,0.106-0.29,0.211-0.437,0.313c-0.151,0.125-0.3,0.267-0.429,0.413 c-0.107,0.121-0.188,0.23-0.237,0.327c-0.195,0.375,0.004,0.569,0.354,0.579c0.121,0.003,0.258-0.018,0.402-0.058 c0.116-0.033,0.234-0.077,0.354-0.137c0.107-0.055,0.212-0.124,0.313-0.201c0.099-0.076,0.193-0.162,0.278-0.26 c0.087-0.101,0.168-0.21,0.232-0.335c0.047-0.09,0.087-0.185,0.118-0.287c0.02-0.053,0.037-0.088,0.056-0.136 c0.065-0.166,0.127-0.302,0.186-0.412c0.083-0.156,0.161-0.275,0.231-0.336c0.381-0.328,0.612,0.599,0.896,1.463 c0.154,0.47,0.324,0.923,0.543,1.144c-0.135-0.073-0.25-0.106-0.358-0.128c-0.174-0.035-0.308-0.012-0.409,0.046 c-0.141,0.079-0.214,0.213-0.212,0.363c0.002,0.155,0.084,0.311,0.252,0.412c0.118,0.072,0.286,0.101,0.49,0.092 c0.065-0.003,0.12,0.008,0.196-0.007c0.226-0.007,0.452-0.002,0.678,0.008c0.145,0.006,0.296,0.015,0.455,0.027 c0.152,0.013,0.31,0.029,0.468,0.05c0.163,0.021,0.324,0.047,0.481,0.079c0.184,0.036,0.357,0.079,0.519,0.13 C50.053,33.307,50.289,33.424,50.428,33.576C50.482,33.635,50.289,33.424,50.428,33.576z M45.898,12.752 c0.527-0.989,1.109-1.926,1.744-2.806c1.605-2.228,3.546-4.083,5.845-5.432C53.49,4.777,53.646,6.97,53.77,7.75 c0.601,2.917,0.194,5.491-0.671,7.919c-0.387,1.083-0.857,2.14-1.389,3.18c-0.504,0.992-1.049,1.972-1.603,2.954 c-0.548,0.974-1.096,1.951-1.612,2.944c-0.531,1.019-1.025,2.054-1.441,3.123c-0.204,0.524-0.396,1.054-0.557,1.596 c-0.34-0.891-1.04-1.346-1.778-1.212c-0.644-0.163-1.336-0.208-1.963-0.254c-0.154-0.012-0.309-0.022-0.453-0.036 c-0.244,0.026-0.58,0.036-0.747,0.125c0.062-0.369,0.135-0.752,0.205-1.132c0.154-0.838,0.319-1.69,0.51-2.563 c0.064-0.442,0.138-0.878,0.215-1.313c0.225-1.285,0.505-2.539,0.839-3.754c0.327-1.188,0.708-2.335,1.14-3.44 C44.893,14.795,45.367,13.746,45.898,12.752C46.425,11.763,45.367,13.746,45.898,12.752z M27.506,43.63 c0.009,0.148,0.021,0.291,0.033,0.434c0.027,0.296,0.058,0.592,0.107,0.885c0.001,0.007,0.002,0.014,0.003,0.021 c0.024,0.144,0.045,0.303,0.064,0.464c0.018,0.15,0.032,0.3,0.045,0.444c0.013,0.158,0.023,0.305,0.028,0.43 c0.003,0.077,0.022,0.292-0.016,0.388c-0.031,0.063-0.084,0.144-0.149,0.257c-0.101,0.18-0.186,0.367-0.253,0.562 c-0.033,0.093-0.065,0.195-0.097,0.311c-0.027,0.098-0.054,0.209-0.08,0.325c-0.007,0.033-0.015,0.062-0.022,0.097 c-0.017,0.084-0.012,0.178-0.022,0.264c-0.015,0.121-0.027,0.244-0.032,0.371c-0.005,0.131-0.014,0.257-0.01,0.39 c0.004,0.142,0.017,0.285,0.028,0.431c0.012,0.146,0.018,0.289,0.035,0.436c0.018,0.154,0.04,0.305,0.06,0.456 c0.022,0.157,0.04,0.312,0.06,0.464c0.022,0.156,0.038,0.304,0.055,0.451c0.011,0.093,0.027,0.195,0.035,0.283 c0.004,0.051,0.004,0.104,0.004,0.155c-0.001,0.123-0.014,0.248-0.035,0.368c-0.021,0.119-0.048,0.229-0.08,0.327 c-0.018,0.143-0.08,0.252-0.186,0.329c-0.227,0.045-0.479-0.006-0.71,0.016c-0.149-0.014-0.224,0.049-0.223,0.189 c-0.021,0.078-0.05,0.189-0.083,0.322c-0.024,0.1-0.051,0.205-0.08,0.326c-0.025,0.104-0.051,0.211-0.078,0.324 c-0.025,0.105-0.052,0.217-0.078,0.327c-0.026,0.106-0.052,0.216-0.078,0.326c-0.026,0.108-0.052,0.217-0.079,0.323 c-0.027,0.111-0.053,0.221-0.079,0.326c-0.027,0.113-0.054,0.223-0.081,0.326c-0.053,0.215-0.109,0.429-0.167,0.643 c-0.036,0.129-0.065,0.226-0.086,0.274c-0.16,0.39-0.434,0.806-0.477,0.712c-0.088-0.186-0.206-0.685-0.312-1.481 c-0.011-0.085-0.052-0.248-0.102-0.439c-0.042-0.159-0.092-0.341-0.151-0.545c-0.052-0.18-0.106-0.364-0.165-0.56 c-0.058-0.191-0.115-0.379-0.173-0.568c-0.063-0.203-0.122-0.395-0.179-0.572c-0.071-0.226-0.136-0.43-0.185-0.578 c-0.066-0.197-0.132-0.394-0.198-0.591c-0.068-0.2-0.137-0.401-0.197-0.59c-0.121-0.381-0.238-0.764-0.357-1.146 c-0.059-0.186-0.125-0.385-0.191-0.584c-0.056-0.168-0.107-0.327-0.172-0.51c-0.055-0.165-0.073-0.359-0.078-0.531 c-0.004-0.127-0.002-0.256,0.008-0.396c0.009-0.12,0.019-0.239,0.037-0.366c0.033-0.227,0.081-0.451,0.133-0.674 c0.077-0.323,0.166-0.642,0.254-0.962c0.032-0.112,0.061-0.221,0.087-0.319c0.024-0.093,0.049-0.187,0.064-0.264 c0.004-0.022,0.013-0.038,0.018-0.059c0.026-0.113,0.058-0.216,0.094-0.313c0.037-0.101,0.076-0.196,0.118-0.286 c0.085-0.185,0.174-0.368,0.266-0.549c0.048-0.125,0.095-0.251,0.141-0.377c0.02-0.071,0.046-0.146,0.073-0.222 c0.033-0.094,0.072-0.19,0.115-0.289c0.04-0.091,0.084-0.185,0.131-0.28c0.044-0.088,0.09-0.177,0.139-0.268 c0.047-0.087,0.095-0.174,0.146-0.262c0.05-0.085,0.101-0.17,0.153-0.255c0.051-0.083,0.104-0.166,0.157-0.249 c0.054-0.083,0.107-0.166,0.162-0.247c0.055-0.082,0.109-0.164,0.165-0.244c0.056-0.082,0.113-0.161,0.169-0.24 c0.058-0.081,0.114-0.159,0.171-0.236c0.116-0.158,0.233-0.313,0.353-0.468c0.119-0.154,0.241-0.305,0.365-0.455 c0.07-0.084,0.133-0.157,0.188-0.22c0.088-0.1,0.158-0.174,0.2-0.212c0.101-0.097,0.507,0.114,0.559,0.135 c0.272,0.113,0.575,0.254,0.717,0.339c-0.008,0.093-0.015,0.208-0.021,0.328c-0.006,0.117-0.011,0.248-0.016,0.386 c-0.004,0.125-0.007,0.255-0.01,0.394c-0.004,0.267-0.006,0.535-0.002,0.802c0.002,0.274,0.009,0.548,0.021,0.822 C27.488,43.348,27.497,43.489,27.506,43.63z" /><path fill="#010202" d="M39.194,80.128c-0.089-1.361-0.116-2.927-0.203-4.792c-0.071-1.525,0-5.146,0.112-8.312 c0.429-7.416-1.113,0.501-1.106-0.852c-0.096,1.203-0.188,2.47-0.277,3.789c-0.094,1.406-0.184,2.863-0.269,4.354 c-0.082,1.443-0.16,2.913-0.232,4.389c-0.073,1.478-0.142,2.957-0.205,4.42c0,0.002,0,0.004,0,0.006 c-0.107,1.083-0.76,3.851-0.76,3.851l0.889,0.312l1.319,0.391l1.519,0.25C39.981,87.933,39.408,84.598,39.194,80.128 C39.105,78.767,39.408,84.598,39.194,80.128z" /><polygon fill="#010202" stroke="#010202" points="49.736,72.603 49.75,72.576 49.736,72.597 		" /><path fill="#010202" stroke="#010202" d="M48.356,75.269l-0.003,0.008L48.356,75.269z" /><path fill="#010202" stroke="#010202" d="M27.562,35.124c-0.843-1.002-1.802-2.129-2.659-3.118 c-0.736-0.848-1.396-1.594-1.838-2.064c-1.448-1.539-2.909-3.098-4.173-4.488c-0.233-0.256-0.472-0.518-0.689-0.76 c-0.909-1.015-1.674-1.915-2.183-2.574c-0.272-0.354-0.475-0.641-0.579-0.833c-0.055-0.101-0.115-0.214-0.179-0.334 c-0.127-0.241-0.273-0.523-0.43-0.831c-0.128-0.252-0.264-0.523-0.405-0.809c-0.123-0.25-0.25-0.51-0.379-0.779 c-0.238-0.498-0.475-0.996-0.7-1.499c0,0,0,0,0-0.001c-0.113-0.25-0.265-0.535-0.43-0.831c-0.173-0.311-0.364-0.638-0.565-0.974 c-0.204-0.34-0.411-0.682-0.615-1.021c-0.203-0.338-0.393-0.662-0.566-0.97c-0.169-0.302-0.323-0.589-0.435-0.836 c-0.082-0.182-0.146-0.347-0.184-0.488c0.048,0.021,0.114,0.056,0.168,0.081c0.221,0.104,0.481,0.238,0.778,0.4 c0.262,0.143,0.539,0.297,0.837,0.469c0.287,0.165,0.584,0.339,0.885,0.515c0.301,0.177,0.6,0.353,0.896,0.526 c0.307,0.181,0.603,0.353,0.885,0.516c0.305,0.175,0.592,0.338,0.843,0.474c0.022,0.012,0.05,0.028,0.071,0.04 c0.255,0.137,0.535,0.304,0.82,0.482c1.553,0.964,3.37,2.367,3.495,2.54c0.159,0.221,1.125,1.677,2.186,3.281 c0.267,0.402,0.538,0.812,0.806,1.216c0.279,0.422,0.553,0.834,0.808,1.22c0.305,0.46,0.581,0.877,0.812,1.224 c0.02,0.03,0.043,0.065,0.062,0.094c0.244,0.366,0.487,0.738,0.731,1.11c0.254,0.388,0.504,0.775,0.755,1.165 c0.242,0.377,0.48,0.75,0.716,1.125c0.233,0.37,0.467,0.74,0.691,1.103c0.218,0.352,0.422,0.692,0.628,1.034 c0.083,0.137,0.172,0.28,0.252,0.415c0.131,0.22,0.259,0.428,0.385,0.628c0.268,0.426,0.52,0.81,0.752,1.161 c0.278,0.42,0.522,0.793,0.731,1.14c0.18,0.298,0.328,0.578,0.441,0.847c0.032,0.077,0.067,0.154,0.094,0.229l0.187,0.168 l0.144,0.129c-0.11-0.317-0.267-0.681-0.447-1.071c-0.464-1.001-1.137-2.219-1.945-3.575c-1.123-1.884-2.481-4.01-3.802-5.991 c-0.632-0.949-1.68-2.478-2.634-3.858c-1.036-1.5-1.961-2.827-2.115-3.041c-0.117-0.163-1.764-1.58-3.267-2.604 c-0.391-0.267-0.773-0.508-1.115-0.691c-1.657-0.891-5.537-3.287-6.218-3.422c0.037,0.388,0.311,1.031,0.677,1.766 c0.745,1.497,1.902,3.412,2.433,4.583c0.792,1.747,1.48,3.464,1.959,4.347c0.385,0.708,1.593,1.885,2.996,3.45 c0.027,0.03,0.058,0.063,0.085,0.094c1.388,1.546,3.095,3.367,4.777,5.155c1.715,1.822,6.923,7.664,6.926,7.672l0.09-0.192 c-0.002-0.007-0.025-0.038-0.046-0.065c-0.023-0.033-0.06-0.08-0.106-0.139C29.343,37.257,28.537,36.282,27.562,35.124 C26.719,34.122,28.537,36.282,27.562,35.124z" /><path fill="#010202" stroke="#010202" d="M53.369,55.385c-0.227,0.219-0.434,0.442-0.625,0.668 c-0.146,0.175-0.285,0.352-0.414,0.528c-0.716,0.996-1.154,2.043-1.474,3.092c-0.176,0.58-0.317,1.16-0.452,1.729 c-0.136,0.574-0.371,1.153-0.648,1.754c-0.395,0.86-0.885,1.772-1.401,2.839c-0.033,0.068-0.067,0.145-0.101,0.215 c-0.113,0.238-0.227,0.487-0.336,0.746c-0.069,0.16-0.141,0.319-0.207,0.49c-0.246,0.623-0.475,1.328-0.674,2.129 c-0.272,1.098-0.483,2.408-0.593,4.014c-0.006,0.09-0.013,0.175-0.019,0.266c-0.008,0.124-0.021,0.232-0.025,0.361l0.463,0.207 c0.004-0.069,0.01-0.131,0.014-0.199c0.146-2.768,0.533-4.79,1.035-6.344c0.062-0.189,0.125-0.375,0.189-0.551 c0.162-0.442,0.332-0.854,0.511-1.222c0.845-1.745,1.862-2.922,2.241-4.524c0.16-0.678,0.325-1.383,0.542-2.09 c0.188-0.621,0.421-1.244,0.728-1.857c0.871-1.732,2.355-3.372,5.242-4.586c0.036-0.016,0.068-0.031,0.105-0.047l-0.141-0.088 c-0.019,0.006-0.033,0.015-0.051,0.021c-1.048,0.436-1.917,0.912-2.65,1.422C54.153,54.688,53.736,55.031,53.369,55.385z" /></g></g></svg>